<?xml version="1.0" encoding="UTF-8"?>
<svg xmlns="http://www.w3.org/2000/svg" viewBox="0 0 500 500" width="500" height="500">
<path d="M236.41 0.08C245.59 0.08 254.76 0.08 263.93 0.08C267.26 1.83 271.49 0.89 275.11 1.24C283.62 2.07 292.46 3.41 300.78 5.31C321.91 10.13 341.9 17.31 361.55 26.36C373.83 32.02 385.32 39.93 396.35 47.72C438.75 77.66 469.13 121.41 486.66 169.73C492.11 184.77 494.93 201.04 497.51 216.81C498.44 222.51 497.77 234.87 499.92 239.26C499.92 246.16 499.92 253.06 499.92 259.96C498.27 263.27 498.91 268.24 498.78 271.92C498.55 277.82 497.72 284.25 496.6 290.04C491.98 313.8 485.4 335.1 475.62 357.17C449.02 417.13 391.61 465.46 330.3 486.69C315.3 491.88 299.38 495.03 283.69 497.52C278 498.42 265.54 497.87 261.19 499.92C253.82 499.92 246.45 499.92 239.07 499.92C234.68 497.79 222.1 498.43 216.37 497.5C200.69 494.96 184.67 491.98 169.74 486.63C108.67 464.77 54.62 420.39 26.29 361.15C15.55 338.69 9.67 318.79 4.32 294.59C2.89 288.13 1.89 281.24 1.28 274.66C0.93 270.96 2.1 265.74 0.08 262.51C0.08 254.17 0.08 245.82 0.08 237.48C2 234.16 0.96 229.07 1.25 225.34C1.77 218.52 2.81 211.14 4.31 204.47C9.73 180.37 16.01 160.87 26.36 138.44C30.56 129.35 36.19 120.23 41.9 111.99C74.57 64.93 115.71 32.58 169.69 13.29C184.68 7.93 200.68 5.29 216.23 2.36C221.21 1.42 232.75 2.17 236.41 0.08ZM149.19 232.78C153.22 233.75 156.76 237.47 160.85 238.94C168.28 241.61 176.63 241.45 184.08 239.05C214.87 229.16 215.07 167.13 183.14 158.65C179.02 157.56 174.94 156.6 170.63 157.25C162.04 158.55 155.6 162.22 148.63 167.1C147.29 165.44 148.13 162.91 146.79 161.2C145.15 159.12 135.31 158.67 134.02 161.17C132.93 163.29 133.68 167.28 133.68 169.63C133.68 176.48 133.66 183.33 133.66 190.18C133.68 207.99 133.67 225.8 133.66 243.61C133.65 251.52 132.32 262.19 134.02 269.76C137.14 271.93 146.42 272.04 149.19 269.29C149.19 257.12 149.19 244.95 149.19 232.78ZM266.44 231.97C267.38 233.75 267.11 236.12 268.45 237.72C270.6 240.28 279.47 240.19 280.86 236.75C281.79 234.43 281.06 230.59 281.06 228.08C281.06 221.23 281.07 214.38 281.07 207.53C281.07 200.99 281.08 194.44 281.07 187.9C281.05 173.86 279.92 162.44 264.3 158.7C261.25 157.97 258.19 157.17 255.02 157.09C249.77 156.95 244.79 157.72 239.66 158.64C234.56 159.54 228.32 159.76 223.94 162.98C221.45 164.8 220.37 173.78 224.46 174.32C227.34 174.7 233.16 171.89 236.32 171.31C243.79 169.94 260.91 167.82 264.58 176.72C265.77 179.6 265.73 182.46 265.96 185.52C266.18 188.44 266.59 191.99 265.53 194.77C247.84 190.88 222.35 189.91 217.56 212.31C216.94 215.22 216.63 218.22 217.05 221.21C219.05 235.53 232.92 243.8 246.91 240.82C255.21 239.06 259.32 235.34 266.44 231.97ZM329.45 222.31C326.97 220.08 324.12 209.45 323.08 205.88C321.55 200.67 319.07 195.74 317.37 190.61C315.29 184.34 313.27 177.88 310.64 171.78C309.28 168.61 308.7 161.94 305.47 160.07C303.38 158.85 299.4 159.58 297.03 159.57C294.97 159.57 292.92 159.31 291.1 160.35C289.42 164.1 296.01 176.07 297.56 180.25C302.67 194 307.97 207.98 314.01 221.36C315.57 224.81 320.78 235.9 321 239.04C321.18 241.54 319.92 243.2 319.16 245.44C317.2 251.24 314.7 258.19 307.97 259.76C304.62 260.54 298.85 258.33 296.01 260.18C293.14 262.04 294.3 271.33 299.32 272.17C302.71 272.74 306.39 273.13 309.82 272.78C326.83 271.06 330.88 253.49 336.28 240.14C342.86 223.87 349.02 207.56 355.29 191.12C358.19 183.49 361.84 176.02 364.3 168.24C365.15 165.53 367.22 162.87 365.53 160.1C362.9 159.12 352.86 158.84 351.09 160.92C348.65 163.8 345.82 175.02 344.56 179.09C341.76 188.18 338.22 197.12 335.06 206.11C333.22 211.36 332.09 217.39 329.45 222.31ZM149.54 177.42C159.4 170.6 173.64 166.74 183.58 175.56C186.63 178.27 187.77 182.39 189.02 186.08C192.52 196.45 191.03 219.17 180.27 225.27C172.62 229.6 163.07 227.55 155.63 224.04C154 223.27 150.3 221.89 149.47 220.19C148.06 217.33 149.15 211.62 149.15 208.45C149.15 200.69 147.89 184.15 149.54 177.42ZM265.53 205.61C266.41 208.08 266.93 219.36 265.49 221.44C264.01 223.58 259.62 225.08 257.3 225.96C250.29 228.6 239 231.71 234.34 223.42C233.34 221.63 233.16 219.51 233.09 217.52C232.63 203.81 245.01 203.32 255.48 204.12C258.84 204.37 262.36 204.34 265.53 205.61ZM393.38 318.79C397.72 320.55 402.04 313.44 404.35 310.52C410.83 302.31 414.71 290.95 416.18 280.7C416.67 277.31 417.81 272.11 415.66 269.04C413.35 265.76 405.64 265.16 402.05 264.94C391.23 264.29 380.45 265.46 370.45 269.75C366.97 271.24 362.79 272.87 361.15 276.48C362.82 279.64 368.99 277.6 371.92 277.17C378.88 276.15 386.95 275.41 393.92 276.54C396.01 276.88 399.34 277.21 400.9 278.79C403.77 281.68 402.59 285.87 402.02 289.38C401.05 295.36 399.17 301.9 396.71 307.44C395.3 310.62 392.71 315.3 393.38 318.79ZM84.78 276.35C82.5 277.32 83.4 279.99 84.55 281.41C87.46 284.97 91.75 287.91 95.27 290.82C110 302.99 126.11 312.68 143.41 320.74C202.14 348.13 272.53 349.03 333.06 327.32C348 321.96 361.97 314.66 375.35 306.18C378.81 303.98 387.14 299.98 387.27 295.21C387.41 290.33 381.93 289.67 378.56 291.12C367.62 295.81 356.14 300.88 344.53 303.72C335.08 306.04 325.74 308.89 316.21 310.98C296.2 315.36 275.9 316.77 255.48 317.46C213.96 318.87 171.65 311.33 132.68 297.67C120.53 293.41 108.78 287.78 97.42 281.82C94.32 280.2 88.46 274.78 84.78 276.35Z" fill="#182128" fill-rule="evenodd" stroke="#182128" stroke-width="0.25" stroke-linejoin="round"/>
<path d="M393.38 318.79C392.71 315.3 395.3 310.62 396.71 307.44C399.17 301.9 401.05 295.36 402.02 289.38C402.59 285.87 403.77 281.68 400.9 278.79C399.34 277.21 396.01 276.88 393.92 276.54C386.95 275.41 378.88 276.15 371.92 277.17C368.99 277.6 362.82 279.64 361.15 276.48C362.79 272.87 366.97 271.24 370.45 269.75C380.45 265.46 391.23 264.29 402.05 264.94C405.64 265.16 413.35 265.76 415.66 269.04C417.81 272.11 416.67 277.31 416.18 280.7C414.71 290.95 410.83 302.31 404.35 310.52C402.04 313.44 397.72 320.55 393.38 318.79ZM84.78 276.35C88.46 274.78 94.32 280.2 97.42 281.82C108.78 287.78 120.53 293.41 132.68 297.67C171.65 311.33 213.96 318.87 255.48 317.46C275.9 316.77 296.2 315.36 316.21 310.98C325.74 308.89 335.08 306.04 344.53 303.72C356.14 300.88 367.62 295.81 378.56 291.12C381.93 289.67 387.41 290.33 387.27 295.21C387.14 299.98 378.81 303.98 375.35 306.18C361.97 314.66 348 321.96 333.06 327.32C272.53 349.03 202.14 348.13 143.41 320.74C126.11 312.68 110 302.99 95.27 290.82C91.75 287.91 87.46 284.97 84.55 281.41C83.4 279.99 82.5 277.32 84.78 276.35Z" fill="#ee931c" fill-rule="evenodd" stroke="#ee931c" stroke-width="0.25" stroke-linejoin="round"/>
</svg>